<svg xmlns="http://www.w3.org/2000/svg" width="34.253" height="34.981" viewBox="0 0 34.253 34.981">
  <g id="love" transform="translate(-5.332)">
    <path id="Tracé_2202" data-name="Tracé 2202" d="M33.145,0H11.772a6.44,6.44,0,0,0-6.44,6.44V20.458a6.44,6.44,0,0,0,6.44,6.44h3.067a.264.264,0,0,1,.264.264v6.915a.9.9,0,0,0,1.56.618l7.255-7.714a.264.264,0,0,1,.193-.083h9.034a6.44,6.44,0,0,0,6.44-6.44V6.44A6.44,6.44,0,0,0,33.145,0Z" fill="#ff5c57"/>
    <path id="Tracé_2203" data-name="Tracé 2203" d="M17.813,36a.268.268,0,0,0-.256-.278H14.587a6.525,6.525,0,0,1-6.234-6.782V14.182a7.349,7.349,0,0,1,.23-1.829,6.438,6.438,0,0,0-3.251,5.6V31.967a6.44,6.44,0,0,0,6.44,6.44h3.067a.264.264,0,0,1,.264.264v6.915a.9.9,0,0,0,1.56.618l1.149-1.222V36Z" transform="translate(0 -11.509)" fill="#ea4e49"/>
    <path id="Tracé_2204" data-name="Tracé 2204" d="M147.839,105.6h0a4.187,4.187,0,0,0-5.921,0l-.924.924a.564.564,0,0,1-.8,0l-.909-.909a4.187,4.187,0,0,0-5.921,0h0a4.187,4.187,0,0,0,0,5.921l6.83,6.83a.564.564,0,0,0,.8,0l6.844-6.845A4.187,4.187,0,0,0,147.839,105.6Z" transform="translate(-118.145 -97.245)" fill="#ec5569"/>
    <path id="Tracé_2205" data-name="Tracé 2205" d="M147.839,105.6h0a4.187,4.187,0,0,0-5.921,0l-.924.924a.564.564,0,0,1-.8,0l-.909-.909a4.187,4.187,0,0,0-5.921,0h0a4.187,4.187,0,0,0,0,5.921l6.83,6.83a.564.564,0,0,0,.8,0l6.844-6.845A4.187,4.187,0,0,0,147.839,105.6Z" transform="translate(-118.145 -97.245)" fill="#f5fbff"/>
    <path id="Tracé_2206" data-name="Tracé 2206" d="M135.558,111.754a4.187,4.187,0,0,1,0-5.921h0a4.166,4.166,0,0,1,1.865-1.08,4.184,4.184,0,0,0-4.056,1.08h0a4.187,4.187,0,0,0,0,5.921l6.83,6.83a.564.564,0,0,0,.8,0l.7-.7Z" transform="translate(-118.146 -97.46)" fill="#d6e4ed"/>
  </g>
</svg>
