<svg id="team-2" xmlns="http://www.w3.org/2000/svg" width="47.59" height="34.542" viewBox="0 0 47.59 34.542">
  <path id="Tracé_2124" data-name="Tracé 2124" d="M371.613,204.624v.539a6.141,6.141,0,0,0,.315,1.942l1.22,3.66h2.3v-8.443h-1.535A2.3,2.3,0,0,0,371.613,204.624Z" transform="translate(-337.072 -190.04)" fill="#e0c584"/>
  <path id="Tracé_2125" data-name="Tracé 2125" d="M397.1,198.73l-1.3,4.546-6.141-5.373a1.535,1.535,0,0,1-1.535-1.535h0a2.3,2.3,0,0,1,2.3-2.3H395.8a1.535,1.535,0,0,1,1.535,1.535v1.443A6.138,6.138,0,0,1,397.1,198.73Z" transform="translate(-352.052 -182.551)" fill="#efd28d"/>
  <rect id="Rectangle_109" data-name="Rectangle 109" width="4.605" height="3.397" transform="translate(37.611 23.028)" fill="#e6af78"/>
  <path id="Tracé_2126" data-name="Tracé 2126" d="M404.645,319.345a6.091,6.091,0,0,0,4.605,0v-1.41h-4.605v1.41Z" transform="translate(-367.033 -294.907)" fill="#d29b6e"/>
  <path id="Tracé_2127" data-name="Tracé 2127" d="M360.521,339.026l-3.7-1.058-2.3,1.528-2.3-1.528-3.7,1.058a2.3,2.3,0,0,0-1.67,2.214v5.612a.768.768,0,0,0,.768.768h13.817a.768.768,0,0,0,.768-.768V341.24A2.3,2.3,0,0,0,360.521,339.026Z" transform="translate(-314.6 -313.078)" fill="#0d6eed"/>
  <path id="Tracé_2128" data-name="Tracé 2128" d="M422.7,362.6h-1.535l.384-8.116h.768Z" transform="translate(-382.014 -328.059)" fill="#162a4c"/>
  <path id="Tracé_2129" data-name="Tracé 2129" d="M384.476,243.889h0a4.606,4.606,0,0,1-4.605-4.605v-.9a1.535,1.535,0,0,1,.45-1.086l1.392-1.392a1.517,1.517,0,0,1,1.114-.451c2.454.077,4.626.6,5.813,1.763a1.515,1.515,0,0,1,.442,1.087v.978A4.606,4.606,0,0,1,384.476,243.889Z" transform="translate(-344.562 -220.094)" fill="#f0c087"/>
  <path id="Tracé_2130" data-name="Tracé 2130" d="M382.174,238.574a1.532,1.532,0,0,1,1.627-1.533,16.2,16.2,0,0,1,5.26,1.036,1.484,1.484,0,0,0-.421-.86c-1.187-1.16-3.359-1.685-5.813-1.763h0a1.517,1.517,0,0,0-1.114.451l-1.392,1.392a1.535,1.535,0,0,0-.45,1.086v.9a4.6,4.6,0,0,0,3.329,4.422,4.567,4.567,0,0,1-1.027-2.887v-2.244Z" transform="translate(-344.562 -220.093)" fill="#e6af78"/>
  <path id="Tracé_2131" data-name="Tracé 2131" d="M478.968,362.608a2.3,2.3,0,0,1,.674-1.628L481.618,359a2.294,2.294,0,0,1,.42,1.317v5.612a.768.768,0,0,1-.768.768h-2.3v-4.092Z" transform="translate(-434.448 -332.159)" fill="#0e64d5"/>
  <path id="Tracé_2132" data-name="Tracé 2132" d="M422.312,356.019h-.768a.384.384,0,0,1-.384-.384v-1.151H422.7v1.151A.384.384,0,0,1,422.312,356.019Z" transform="translate(-382.014 -328.059)" fill="#162a4c"/>
  <g id="Groupe_2342" data-name="Groupe 2342" transform="translate(36.763 24.28)">
    <path id="Tracé_2133" data-name="Tracé 2133" d="M398.664,333.548l-1.3.994a.461.461,0,0,1-.684-.145l-1.167-2.131.47-.717a.307.307,0,0,1,.466-.057Z" transform="translate(-395.512 -331.411)" fill="#0e64d5"/>
    <path id="Tracé_2134" data-name="Tracé 2134" d="M429.419,333.549l1.3.994a.461.461,0,0,0,.684-.145l1.167-2.131-.47-.717a.307.307,0,0,0-.466-.057Z" transform="translate(-426.267 -331.411)" fill="#0e64d5"/>
  </g>
  <path id="Tracé_2135" data-name="Tracé 2135" d="M15.607,209.017a27.7,27.7,0,0,1-1.289-6.281,5.564,5.564,0,0,0-5.46-5.373,5.564,5.564,0,0,0-5.46,5.373,27.7,27.7,0,0,1-1.289,6.281.765.765,0,0,0,.4.977,14.661,14.661,0,0,0,4.009,1.186H11.2a14.79,14.79,0,0,0,4.009-1.186A.764.764,0,0,0,15.607,209.017Z" transform="translate(-1.867 -185.543)" fill="#1c1f22"/>
  <path id="Tracé_2136" data-name="Tracé 2136" d="M59.233,209.995a.764.764,0,0,0,.4-.977,27.7,27.7,0,0,1-1.288-6.281,5.564,5.564,0,0,0-5.46-5.373h-.023a2.342,2.342,0,0,0-1.14,4.342,2.122,2.122,0,0,0,.2.1l1.745,9.369h1.561A14.8,14.8,0,0,0,59.233,209.995Z" transform="translate(-45.892 -185.543)" fill="#2b2e33"/>
  <path id="Tracé_2137" data-name="Tracé 2137" d="M12.544,314.6l-2.484-1.242a1.535,1.535,0,0,1-.849-1.373v-2.3H4.605v2.3a1.535,1.535,0,0,1-.849,1.373L1.273,314.6A2.3,2.3,0,0,0,0,316.656v4.536a.768.768,0,0,0,.768.768H13.049a.768.768,0,0,0,.768-.768v-4.536A2.3,2.3,0,0,0,12.544,314.6Z" transform="translate(0 -287.418)" fill="#e6af78"/>
  <path id="Tracé_2138" data-name="Tracé 2138" d="M51.446,312.747a6.067,6.067,0,0,0,2.344-.474,1.513,1.513,0,0,1-.041-.294v-2.3H49.143v2.3a1.511,1.511,0,0,1-.041.3A6.1,6.1,0,0,0,51.446,312.747Z" transform="translate(-44.538 -287.417)" fill="#d29b6e"/>
  <path id="Tracé_2139" data-name="Tracé 2139" d="M12.544,353.953l-1.77-.885a4.6,4.6,0,0,1-7.731,0l-1.77.885A2.3,2.3,0,0,0,0,356.012v4.536a.768.768,0,0,0,.768.768H13.049a.768.768,0,0,0,.768-.768v-4.536A2.3,2.3,0,0,0,12.544,353.953Z" transform="translate(0 -326.775)" fill="#f4bc33"/>
  <path id="Tracé_2140" data-name="Tracé 2140" d="M29.687,252.517h0a4.606,4.606,0,0,1-4.567-4.009.774.774,0,0,1,.41-.8,6.408,6.408,0,0,0,1.359-.918,4.433,4.433,0,0,0,1.05-1.382.76.76,0,0,1,.865-.421,13.225,13.225,0,0,1,5.21,2.669.743.743,0,0,1,.264.617A4.606,4.606,0,0,1,29.687,252.517Z" transform="translate(-22.778 -228.722)" fill="#f0c087"/>
  <path id="Tracé_2141" data-name="Tracé 2141" d="M34.014,247.658a13.224,13.224,0,0,0-5.21-2.669.76.76,0,0,0-.865.421,4.394,4.394,0,0,1-.7,1.024v0a4.12,4.12,0,0,1-.348.356,6.4,6.4,0,0,1-1.359.918.774.774,0,0,0-.41.8,4.613,4.613,0,0,0,3.869,3.957,3.361,3.361,0,0,1-1.6-3.018v-1.095c.174-.129.35-.257.526-.415a6.111,6.111,0,0,0,1.1-1.3,11.591,11.591,0,0,1,4,2.177c.145.128.506.46.929.857a4.57,4.57,0,0,0,.34-1.4A.743.743,0,0,0,34.014,247.658Z" transform="translate(-22.779 -228.721)" fill="#e6af78"/>
  <path id="Tracé_2142" data-name="Tracé 2142" d="M.468,369.859A2.3,2.3,0,0,0,0,371.243v4.536a.768.768,0,0,0,.768.768h2.3v-3.868a1.535,1.535,0,0,0-.576-1.2Z" transform="translate(0 -342.005)" fill="#eab32d"/>
  <path id="Tracé_2143" data-name="Tracé 2143" d="M139.69,328.527l-6.422-2.335-4.605,1.535-4.605-1.535-6.422,2.335a3.07,3.07,0,0,0-2.021,2.885v4.758a.768.768,0,0,0,.768.768h24.563a.768.768,0,0,0,.768-.768v-4.758A3.07,3.07,0,0,0,139.69,328.527Z" transform="translate(-104.867 -302.397)" fill="#ff5c57"/>
  <path id="Tracé_2144" data-name="Tracé 2144" d="M240.215,359.226l-.731,7.676h3.07l-.731-7.676Z" transform="translate(-217.224 -332.36)" fill="#162a4c"/>
  <path id="Tracé_2145" data-name="Tracé 2145" d="M243.7,345.3h-1.612a.537.537,0,0,1-.537-.537v-2.052h2.686v2.052A.537.537,0,0,1,243.7,345.3Z" transform="translate(-219.097 -317.379)" fill="#162a4c"/>
  <path id="Tracé_2146" data-name="Tracé 2146" d="M350.618,359.855a3.067,3.067,0,0,1,.826,2.092V366.7a.768.768,0,0,1-.768.768h-3.838v-2.566a3.07,3.07,0,0,1,.9-2.171Z" transform="translate(-314.6 -332.931)" fill="#ea4e49"/>
  <path id="Tracé_2147" data-name="Tracé 2147" d="M182.048,78.158v-6.43a1.535,1.535,0,0,0-1.535-1.535H171.3a6.141,6.141,0,0,0-6.141,6.141v1.825a7.675,7.675,0,0,0,.394,2.427l.256.767a2.3,2.3,0,0,1,.118.728v.394H181.28V82.08a2.3,2.3,0,0,1,.118-.728l.256-.767A7.673,7.673,0,0,0,182.048,78.158Z" transform="translate(-149.809 -70.193)" fill="#5a4146"/>
  <path id="Tracé_2148" data-name="Tracé 2148" d="M206.452,73.311a3.118,3.118,0,0,0,3.118,3.118H210l.208,6.045h8.523V82.08a2.3,2.3,0,0,1,.118-.728l.256-.767a7.675,7.675,0,0,0,.394-2.427v-6.43a1.535,1.535,0,0,0-1.535-1.535h-8.4A3.118,3.118,0,0,0,206.452,73.311Z" transform="translate(-187.262 -70.193)" fill="#694b4b"/>
  <rect id="Rectangle_110" data-name="Rectangle 110" width="9.211" height="6.908" transform="translate(19.19 18.422)" fill="#e6af78"/>
  <path id="Tracé_2149" data-name="Tracé 2149" d="M206.451,270.982a9.158,9.158,0,0,0,9.211,0v-2.6h-9.211v2.6Z" transform="translate(-187.261 -249.964)" fill="#d29b6e"/>
  <g id="Groupe_2343" data-name="Groupe 2343" transform="translate(17.655 22.517)">
    <path id="Tracé_2150" data-name="Tracé 2150" d="M196.077,315.256l-2.448,2.448a.768.768,0,0,1-1.154-.079l-2.538-3.345.664-1.4a.767.767,0,0,1,1.1-.324Z" transform="translate(-189.936 -312.443)" fill="#ea4e49"/>
    <path id="Tracé_2151" data-name="Tracé 2151" d="M256,315.256l2.448,2.448a.767.767,0,0,0,1.154-.079l2.538-3.345-.664-1.4a.767.767,0,0,0-1.1-.324Z" transform="translate(-249.859 -312.443)" fill="#ea4e49"/>
  </g>
  <path id="Tracé_2152" data-name="Tracé 2152" d="M181.095,151.646h0a7.676,7.676,0,0,1-7.676-7.676v-.9a1.536,1.536,0,0,1,.45-1.086l.636-.636a1.535,1.535,0,0,0,.45-1.086v-1.84a.761.761,0,0,1,.585-.746c1.815-.429,7.465-1.444,11.309,1.383a.985.985,0,0,1,.388.8v.408a1.535,1.535,0,0,0,.45,1.086l.636.636a1.535,1.535,0,0,1,.45,1.086v.9A7.676,7.676,0,0,1,181.095,151.646Z" transform="translate(-157.3 -130.922)" fill="#f0c087"/>
  <path id="Tracé_2153" data-name="Tracé 2153" d="M186.848,139.075c-2.7-1.989-6.3-2.075-8.823-1.8a20.7,20.7,0,0,0-2.486.419.761.761,0,0,0-.585.746v1.84a1.535,1.535,0,0,1-.45,1.086l-.636.636a1.535,1.535,0,0,0-.45,1.086v.9a7.673,7.673,0,0,0,6.748,7.614,7.644,7.644,0,0,1-2.143-5.312v-5.611a1.536,1.536,0,0,1,1.35-1.525c1.842-.231,5.216-.37,7.861,1.126v-.408A.985.985,0,0,0,186.848,139.075Z" transform="translate(-157.3 -130.935)" fill="#e6af78"/>
  <path id="Tracé_2154" data-name="Tracé 2154" d="M116.439,359.855a3.067,3.067,0,0,0-.826,2.092V366.7a.768.768,0,0,0,.768.768h3.838v-2.566a3.07,3.07,0,0,0-.9-2.171Z" transform="translate(-104.867 -332.931)" fill="#ea4e49"/>
</svg>
