<svg xmlns="http://www.w3.org/2000/svg" width="35.959" height="34.458" viewBox="0 0 35.959 34.458">
  <g id="alarm-clock" transform="translate(-16.987 -27)">
    <path id="Tracé_2155" data-name="Tracé 2155" d="M89.876,126.315a14.175,14.175,0,1,1-9.325-25.753q.6-.052,1.217-.052t1.217.052a14.183,14.183,0,0,1,6.891,25.753Z" transform="translate(-46.802 -67.98)" fill="#445980"/>
    <path id="Tracé_2156" data-name="Tracé 2156" d="M116.729,138.3A11.333,11.333,0,1,1,105.4,149.632,11.333,11.333,0,0,1,116.729,138.3Z" transform="translate(-81.762 -102.928)" fill="#f5fbff"/>
    <path id="Tracé_2157" data-name="Tracé 2157" d="M107.954,149.635a11.333,11.333,0,0,1,10.089-11.266,11.333,11.333,0,1,0,0,22.531A11.333,11.333,0,0,1,107.954,149.635Z" transform="translate(-81.834 -102.929)" fill="#e2f0fa"/>
    <path id="Tracé_2158" data-name="Tracé 2158" d="M369.1,43.715l-1.342-1.343a5.04,5.04,0,0,0-7.129,0l-.176.176,8.468,8.472.179-.18A5.039,5.039,0,0,0,369.1,43.715Z" transform="translate(-317.626 -12.85)" fill="#0d6eed"/>
    <path id="Tracé_2159" data-name="Tracé 2159" d="M368.272,425.233a1.222,1.222,0,0,1-1.727,1.728l-2.765-2.766a14.225,14.225,0,0,0,1.881-1.574l.015.015Z" transform="translate(-320.706 -365.86)" fill="#445980"/>
    <path id="Tracé_2160" data-name="Tracé 2160" d="M208.672,27H205.3a2.3,2.3,0,0,0-2.3,2.285v.875h7.974v-.875A2.3,2.3,0,0,0,208.672,27Z" transform="translate(-172.02)" fill="#ff5c57"/>
    <path id="Tracé_2161" data-name="Tracé 2161" d="M26.934,42.372a5.04,5.04,0,0,0-7.129,0l-1.342,1.343a5.039,5.039,0,0,0,0,7.125l.179.18,8.468-8.472Z" transform="translate(0 -12.85)" fill="#0d6eed"/>
    <path id="Tracé_2162" data-name="Tracé 2162" d="M88.591,424.194l-2.765,2.766a1.222,1.222,0,1,1-1.727-1.728l2.611-2.612A14.226,14.226,0,0,0,88.591,424.194Z" transform="translate(-61.732 -365.86)" fill="#445980"/>
    <path id="Tracé_2163" data-name="Tracé 2163" d="M376.205,108.95l1.538,1.539-2.418,2.419a14.147,14.147,0,0,0-1.585-1.483l.036-.045Z" transform="translate(-329.916 -75.786)" fill="#445980"/>
    <path id="Tracé_2164" data-name="Tracé 2164" d="M242.2,69.116v2.347l0,.052q-.6-.052-1.217-.052t-1.217.052l0-.052V69.1H242.2Z" transform="translate(-206.015 -38.933)" fill="#445980"/>
    <path id="Tracé_2165" data-name="Tracé 2165" d="M89.007,111.38l.036.045a14.148,14.148,0,0,0-1.585,1.483l-2.418-2.419,1.538-1.539Z" transform="translate(-62.933 -75.786)" fill="#445980"/>
    <g id="_Group_" data-name=" Group " transform="translate(34.515 40.67)">
      <g id="_Group_2" data-name=" Group 2" transform="translate(0 0)">
        <g id="_Path_2" data-name=" Path 2">
          <path id="Tracé_2166" data-name="Tracé 2166" d="M255.348,215.776h-4.9a.451.451,0,0,1-.451-.451v-6.144a.451.451,0,1,1,.9,0v5.692h4.446a.451.451,0,0,1,0,.9Z" transform="translate(-250 -208.73)" fill="#f4bc33"/>
        </g>
      </g>
    </g>
    <g id="Groupe_2344" data-name="Groupe 2344" transform="translate(24.511 36.478)">
      <path id="Tracé_2167" data-name="Tracé 2167" d="M249.451,155.407a.451.451,0,0,1-.451-.451v-1.5a.451.451,0,1,1,.9,0v1.5A.451.451,0,0,1,249.451,155.407Z" transform="translate(-239.07 -153)" fill="#f4bc33"/>
      <path id="Tracé_2168" data-name="Tracé 2168" d="M249.451,398.482a.451.451,0,0,1-.451-.451v-1.58a.451.451,0,1,1,.9,0v1.58A.451.451,0,0,1,249.451,398.482Z" transform="translate(-239.07 -377.721)" fill="#f4bc33"/>
      <path id="Tracé_2169" data-name="Tracé 2169" d="M362.956,286.9h-1.5a.451.451,0,1,1,0-.9h1.5a.451.451,0,1,1,0,.9Z" transform="translate(-342.645 -275.995)" fill="#f4bc33"/>
      <path id="Tracé_2170" data-name="Tracé 2170" d="M118.956,286.9h-1.5a.451.451,0,1,1,0-.9h1.5a.451.451,0,1,1,0,.9Z" transform="translate(-117 -275.995)" fill="#f4bc33"/>
      <path id="Tracé_2171" data-name="Tracé 2171" d="M328.732,193.144a.451.451,0,0,1-.319-.77l1.08-1.08a.451.451,0,1,1,.638.638l-1.08,1.08A.45.45,0,0,1,328.732,193.144Z" transform="translate(-312.388 -188.29)" fill="#f4bc33"/>
      <path id="Tracé_2172" data-name="Tracé 2172" d="M156.5,365.439a.451.451,0,0,1-.319-.77l1.08-1.08a.451.451,0,0,1,.638.638l-1.079,1.08A.45.45,0,0,1,156.5,365.439Z" transform="translate(-153.115 -347.625)" fill="#f4bc33"/>
      <path id="Tracé_2173" data-name="Tracé 2173" d="M329.095,365.44a.45.45,0,0,1-.319-.132l-1.08-1.08a.451.451,0,0,1,.639-.638l1.08,1.08a.451.451,0,0,1-.319.77Z" transform="translate(-311.724 -347.626)" fill="#f4bc33"/>
      <path id="Tracé_2174" data-name="Tracé 2174" d="M156.867,193.141a.45.45,0,0,1-.319-.132l-1.08-1.08a.451.451,0,1,1,.638-.638l1.08,1.08a.451.451,0,0,1-.319.77Z" transform="translate(-152.453 -188.287)" fill="#f4bc33"/>
    </g>
    <g id="_Path_3" data-name=" Path 3" transform="translate(30.246 40.711)">
      <path id="Tracé_2175" data-name="Tracé 2175" d="M193.689,210.524a.451.451,0,0,1-.287-.8c.161-.133.33-.26.5-.379a.451.451,0,1,1,.512.744c-.15.1-.3.215-.439.331A.449.449,0,0,1,193.689,210.524Z" transform="translate(-193.237 -209.266)" fill="#f4f8fc"/>
    </g>
    <g id="_Path_3-2" data-name=" Path 3" transform="translate(27.798 42.374)">
      <path id="Tracé_2176" data-name="Tracé 2176" d="M165.936,242.6a.451.451,0,0,1-.13-.019,7.175,7.175,0,0,1-3.8-11.012.451.451,0,1,1,.737.522,6.272,6.272,0,0,0,3.317,9.626.451.451,0,0,1-.129.884Z" transform="translate(-160.696 -231.376)" fill="#f4f8fc"/>
    </g>
  </g>
</svg>
