<svg xmlns="http://www.w3.org/2000/svg" width="57.84" height="34.838" viewBox="0 0 57.84 34.838">
  <g id="handshake" transform="translate(0 -101.81)">
    <path id="Tracé_2177" data-name="Tracé 2177" d="M158.659,131.2l-1.469-11.935-2.753.339v0l-5.338-3a3.217,3.217,0,0,0-1.873-.4l-8.428.779a3.216,3.216,0,0,0-2.485,1.587l-5.94,10.225a1.413,1.413,0,0,0,.723,2.032l.243.092a5.271,5.271,0,0,0,1.428.319l-.753.656-1.506,1.312-4.283,3.653a1.83,1.83,0,0,0-.177,2.582l.434.5a2.352,2.352,0,0,0,3.317.227l1.637,1.878a2.347,2.347,0,0,0,3.317.227l1.635,1.878a2.353,2.353,0,0,0,3.319.228l.889.768a2.353,2.353,0,0,0,3.319.228l1.208-1.054L155.28,136.4l.011-.01,4.007,0Z" transform="translate(-111.409 -12.75)" fill="#f29f5c"/>
    <path id="Tracé_2178" data-name="Tracé 2178" d="M154.317,263.672l-.011.01-10.155,7.909-1.208,1.054a2.353,2.353,0,0,1-3.319-.228l-.889-.768a2.353,2.353,0,0,1-3.319-.228l-1.635-1.878a2.347,2.347,0,0,1-3.317-.227l-1.637-1.878a2.351,2.351,0,0,1-2.912.139,1.829,1.829,0,0,0,.145,2.212l.434.5a2.352,2.352,0,0,0,3.317.227l1.637,1.878a2.347,2.347,0,0,0,3.317.227L136.4,274.5a2.353,2.353,0,0,0,3.319.228l.889.768a2.353,2.353,0,0,0,3.319.228l1.208-1.054,10.155-7.909.011-.01,4.007,0-.443-3.6Z" transform="translate(-111.42 -143.107)" fill="#d37d42"/>
    <path id="Tracé_2179" data-name="Tracé 2179" d="M112.806,142.184l-5.441-4.692-1.513-1.3-1.083-.932-4.655-4.013.538-4.576a3.158,3.158,0,0,0-2.295-3.412L88.21,120.447a2.348,2.348,0,0,0-2.716,1.193l-1.276,2.491-5.478-.372-1.4,11.943-.61,5.19,5.332.355.011.01,11.139,9.6,1.214,1.047a2.353,2.353,0,0,0,3.318-.246l1.624-1.885a2.353,2.353,0,0,0,3.318-.246l1.625-1.887a2.348,2.348,0,0,0,3.316-.245l1.626-1.887a2.352,2.352,0,0,0,3.316-.245l.432-.5A1.83,1.83,0,0,0,112.806,142.184Z" transform="translate(-68.059 -16.456)" fill="#f9c295"/>
    <g id="Groupe_2345" data-name="Groupe 2345" transform="translate(25.629 124.299)">
      <path id="Tracé_2180" data-name="Tracé 2180" d="M245.99,302.312l-1.657-1.429a1.943,1.943,0,0,1-.08,2.436l-.458.531a2.5,2.5,0,0,1-3.52.26l-1.727,2a2.492,2.492,0,0,1-3.52.26l-1.725,2a2.5,2.5,0,0,1-3.522.262l-1.725,2a2.48,2.48,0,0,1-1.183.763l.734.633a2.353,2.353,0,0,0,3.318-.246l1.624-1.885a2.353,2.353,0,0,0,3.318-.246l1.625-1.887a2.348,2.348,0,0,0,3.316-.245l1.626-1.887a2.352,2.352,0,0,0,3.316-.245l.432-.5A1.83,1.83,0,0,0,245.99,302.312Z" transform="translate(-226.872 -300.883)" fill="#e59f6a"/>
      <path id="Tracé_2181" data-name="Tracé 2181" d="M335.092,315.617l-2.981-2.571A.847.847,0,1,0,331,314.33l2.976,2.566.561-.651a2.345,2.345,0,0,0,.737.428A.848.848,0,0,0,335.092,315.617Z" transform="translate(-318.98 -311.49)" fill="#e59f6a"/>
      <path id="Tracé_2182" data-name="Tracé 2182" d="M293.89,337.472a.847.847,0,0,0-.176-1.071l-2.678-2.309a.847.847,0,1,0-1.107,1.283l2.678,2.309,0,0,.553-.643A2.342,2.342,0,0,0,293.89,337.472Z" transform="translate(-282.545 -330.158)" fill="#e59f6a"/>
    </g>
    <g id="Groupe_2346" data-name="Groupe 2346" transform="translate(13.205 103.434)">
      <path id="Tracé_2183" data-name="Tracé 2183" d="M117.96,298.575l-.645.852a2.108,2.108,0,0,0,.408,2.953h0a2.108,2.108,0,0,0,2.953-.408l.645-.852a2.108,2.108,0,0,0-.408-2.953h0A2.108,2.108,0,0,0,117.96,298.575Z" transform="translate(-116.887 -277.23)" fill="#f29f5c"/>
      <path id="Tracé_2184" data-name="Tracé 2184" d="M148.28,314.442l-1.215,1.6a2.108,2.108,0,0,0,.408,2.953h0a2.108,2.108,0,0,0,2.953-.408l1.215-1.6a2.108,2.108,0,0,0-.408-2.953h0A2.108,2.108,0,0,0,148.28,314.442Z" transform="translate(-143.276 -291.304)" fill="#f29f5c"/>
      <path id="Tracé_2185" data-name="Tracé 2185" d="M178.47,331.817,176.814,334a2.108,2.108,0,0,0,.408,2.953h0a2.108,2.108,0,0,0,2.953-.408l1.656-2.187a2.108,2.108,0,0,0-.408-2.953h0A2.108,2.108,0,0,0,178.47,331.817Z" transform="translate(-169.665 -306.716)" fill="#f29f5c"/>
      <path id="Tracé_2186" data-name="Tracé 2186" d="M208.316,353.224l-1.753,2.314a2.108,2.108,0,0,0,.408,2.953h0a2.108,2.108,0,0,0,2.953-.408l1.753-2.314a2.108,2.108,0,0,0-.408-2.953h0A2.108,2.108,0,0,0,208.316,353.224Z" transform="translate(-196.054 -325.704)" fill="#f29f5c"/>
      <path id="Tracé_2187" data-name="Tracé 2187" d="M190.432,119.6l-5.338-3a3.217,3.217,0,0,0-1.873-.4l-8.428.779a3.216,3.216,0,0,0-2.485,1.587l-5.94,10.225a1.413,1.413,0,0,0,.723,2.032l.243.092a5.282,5.282,0,0,0,6.055-1.723l2.276-2.962s5.471,6.335,11.494-1.063" transform="translate(-160.608 -116.183)" fill="#f29f5c"/>
    </g>
    <path id="Tracé_2188" data-name="Tracé 2188" d="M409.993,125.233,407.2,102.555a.847.847,0,0,0-.944-.737l-6.528.8a3.1,3.1,0,0,0-2.7,3.453l2.242,18.211a3.1,3.1,0,0,0,3.453,2.7l6.528-.8A.847.847,0,0,0,409.993,125.233Z" transform="translate(-352.159 -0.001)" fill="#0d6eed"/>
    <path id="Tracé_2189" data-name="Tracé 2189" d="M425.985,287.13l-.306-2.489a.885.885,0,0,1-.625.382l-6.843.842a3.244,3.244,0,0,1-3.173-1.539l.228,1.855a3.1,3.1,0,0,0,3.453,2.7l6.528-.8A.847.847,0,0,0,425.985,287.13Z" transform="translate(-368.151 -161.898)" fill="#0e64d5"/>
    <path id="Tracé_2190" data-name="Tracé 2190" d="M10.271,102.62l-6.528-.8a.847.847,0,0,0-.944.737L.006,125.232a.847.847,0,0,0,.737.944l6.528.8a3.1,3.1,0,0,0,3.453-2.7l2.242-18.211A3.1,3.1,0,0,0,10.271,102.62Z" transform="translate(0)" fill="#ff5c57"/>
    <path id="Tracé_2191" data-name="Tracé 2191" d="M.006,287.13l.306-2.489a.885.885,0,0,0,.625.382l6.843.842a3.244,3.244,0,0,0,3.173-1.539l-.228,1.855a3.1,3.1,0,0,1-3.453,2.7l-6.528-.8A.847.847,0,0,1,.006,287.13Z" transform="translate(0 -161.898)" fill="#ea4e49"/>
    <g id="Groupe_2347" data-name="Groupe 2347" transform="translate(3.693 119.963)">
      <circle id="Ellipse_1" data-name="Ellipse 1" cx="1.638" cy="1.638" r="1.638" transform="translate(47.086)" fill="#ebeef2"/>
      <circle id="Ellipse_2" data-name="Ellipse 2" cx="1.638" cy="1.638" r="1.638" fill="#ebeef2"/>
    </g>
  </g>
</svg>
