<svg xmlns="http://www.w3.org/2000/svg" width="30.904" height="34.838" viewBox="0 0 30.904 34.838">
  <g id="statistics" transform="translate(-28.91 0)">
    <g id="Groupe_2348" data-name="Groupe 2348" transform="translate(28.911 28.033)">
      <path id="Tracé_2192" data-name="Tracé 2192" d="M35.045,413.021v4.763a1.021,1.021,0,0,1-1.021,1.021H29.942a1.021,1.021,0,0,1-1.021-1.021v-4.763A1.021,1.021,0,0,1,29.942,412h4.083A1.021,1.021,0,0,1,35.045,413.021Z" transform="translate(-28.921 -412)" fill="#0e64d5"/>
    </g>
    <g id="Groupe_2349" data-name="Groupe 2349" transform="translate(37.076 22.987)">
      <path id="Tracé_2193" data-name="Tracé 2193" d="M155.045,338.861v9.809a1.021,1.021,0,0,1-1.021,1.021h-4.083a1.021,1.021,0,0,1-1.021-1.021v-9.809a1.021,1.021,0,0,1,1.021-1.021h4.083A1.021,1.021,0,0,1,155.045,338.861Z" transform="translate(-148.921 -337.84)" fill="#ea4e49"/>
    </g>
    <g id="Groupe_2350" data-name="Groupe 2350" transform="translate(45.241 15.422)">
      <path id="Tracé_2194" data-name="Tracé 2194" d="M275.044,227.671v17.375a1.021,1.021,0,0,1-1.021,1.021h-4.083a1.021,1.021,0,0,1-1.021-1.021V227.671a1.02,1.02,0,0,1,1.021-1.021h4.083A1.021,1.021,0,0,1,275.044,227.671Z" transform="translate(-268.92 -226.65)" fill="#eab32d"/>
    </g>
    <g id="Groupe_2351" data-name="Groupe 2351" transform="translate(53.406 7.895)">
      <path id="Tracé_2195" data-name="Tracé 2195" d="M395.044,117.062v24.9a1.021,1.021,0,0,1-1.021,1.021h-4.083a1.021,1.021,0,0,1-1.021-1.021v-24.9a1.02,1.02,0,0,1,1.021-1.021h4.083A1.021,1.021,0,0,1,395.044,117.062Z" transform="translate(-388.92 -116.041)" fill="#97de3d"/>
    </g>
    <g id="Groupe_2352" data-name="Groupe 2352" transform="translate(28.91 0)">
      <path id="Tracé_2196" data-name="Tracé 2196" d="M59.637,1.594l-2.59,3.813a1.022,1.022,0,0,1-.844.447h-3.41l-3.654,6.978a1.02,1.02,0,0,1-.9.548h-3.41l-.462.842-3.4,6.194a1.022,1.022,0,0,1-.9.529H36.591l-3.166,4.6a1.02,1.02,0,0,1-.841.442H29.931a1.021,1.021,0,1,1,0-2.041h2.117l3.165-4.6a1.021,1.021,0,0,1,.841-.442h3.41l3.86-7.036a1.021,1.021,0,0,1,.895-.529h3.4L51.27,4.36a1.021,1.021,0,0,1,.9-.547h3.487L57.949.447a1.021,1.021,0,1,1,1.688,1.147Z" transform="translate(-28.91 0)" fill="#445980"/>
    </g>
    <path id="Tracé_2197" data-name="Tracé 2197" d="M76.983,413.021v4.763a1.021,1.021,0,0,1-1.021,1.021H73.921V412h2.041A1.021,1.021,0,0,1,76.983,413.021Z" transform="translate(-41.948 -383.967)" fill="#0d6eed"/>
    <path id="Tracé_2198" data-name="Tracé 2198" d="M196.983,338.861v9.809a1.021,1.021,0,0,1-1.021,1.021h-2.041V337.84h2.041A1.021,1.021,0,0,1,196.983,338.861Z" transform="translate(-153.783 -314.853)" fill="#ff5c57"/>
    <path id="Tracé_2199" data-name="Tracé 2199" d="M316.982,227.671v17.375a1.021,1.021,0,0,1-1.021,1.021H313.92V226.65h2.041A1.021,1.021,0,0,1,316.982,227.671Z" transform="translate(-265.617 -211.228)" fill="#f4bc33"/>
    <path id="Tracé_2200" data-name="Tracé 2200" d="M436.982,117.062v24.9a1.021,1.021,0,0,1-1.021,1.021H433.92V116.041h2.041A1.021,1.021,0,0,1,436.982,117.062Z" transform="translate(-377.452 -108.146)" fill="#59c36a"/>
    <path id="Tracé_2201" data-name="Tracé 2201" d="M271.275,1.594l-2.59,3.813a1.021,1.021,0,0,1-.844.447h-3.41l-3.654,6.978a1.02,1.02,0,0,1-.9.548h-3.41l-.462.842V11.339h3.255l3.653-6.979a1.021,1.021,0,0,1,.9-.547H267.3L269.587.447a1.021,1.021,0,1,1,1.688,1.147Z" transform="translate(-211.638 0)" fill="#162a4c"/>
  </g>
</svg>
